<svg xmlns="http://www.w3.org/2000/svg" xmlns:xlink="http://www.w3.org/1999/xlink" width="2000" zoomAndPan="magnify" viewBox="0 0 1500 1499.999933" height="2000" preserveAspectRatio="xMidYMid meet" version="1.0"><path fill="#ffffff" d="M 239.886719 475.699219 C 305.839844 411.941406 407.859375 388.40625 494.292969 418.769531 C 497.457031 419.882812 499.113281 423.347656 498 426.511719 C 496.96875 429.441406 493.90625 431.078125 490.949219 430.414062 C 450.421875 421.34375 407.617188 424.5625 368.734375 438.054688 C 330.960938 451.125 296.347656 474.183594 271.378906 504.957031 C 263.878906 514.1875 250.3125 515.601562 241.074219 508.09375 C 230.980469 500.03125 230.4375 484.480469 239.886719 475.691406 Z M 239.886719 475.699219 " fill-opacity="1" fill-rule="nonzero"/><path fill="#ffffff" d="M 372.238281 268.046875 C 441.253906 286.929688 500.890625 337.515625 529.304688 403.011719 C 530.511719 405.800781 529.230469 409.039062 526.441406 410.25 C 523.921875 411.335938 521.039062 410.398438 519.617188 408.160156 C 501.976562 380.46875 478.113281 357.539062 451.152344 340.789062 C 424.195312 324.03125 394.042969 313.453125 363.894531 310.222656 C 352.042969 308.960938 343.46875 298.324219 344.742188 286.472656 C 346.023438 273.242188 359.53125 264.226562 372.238281 268.046875 Z M 372.238281 268.046875 " fill-opacity="1" fill-rule="nonzero"/><path fill="#ffffff" d="M 332.570312 83.230469 C 451.011719 155.035156 539.988281 273.859375 574.347656 407.878906 C 575.140625 410.980469 573.269531 414.132812 570.171875 414.929688 C 567.210938 415.6875 564.207031 414.019531 563.253906 411.183594 C 520.824219 286.539062 428.382812 179.660156 311.671875 120.800781 C 301.066406 115.453125 296.804688 102.515625 302.152344 91.90625 C 307.722656 80.71875 321.945312 76.683594 332.578125 83.238281 Z M 332.570312 83.230469 " fill-opacity="1" fill-rule="nonzero"/><path fill="#ffffff" d="M 530.503906 125.210938 C 563.730469 176.898438 579.289062 238.957031 573.933594 299.261719 C 573.382812 304.371094 566.03125 304.492188 565.367188 299.34375 C 562.269531 270.941406 554.367188 243.554688 542.601562 218.519531 C 530.832031 193.488281 515.179688 170.765625 496.621094 151.65625 C 488.300781 143.089844 488.503906 129.402344 497.070312 121.089844 C 506.722656 111.476562 523.472656 113.582031 530.511719 125.210938 Z M 530.503906 125.210938 " fill-opacity="1" fill-rule="nonzero"/><path fill="#ffffff" d="M 553.742188 687.507812 C 573.203125 634.628906 581.5 578.652344 576.875 530.578125 C 576.414062 526.535156 571.867188 528.707031 571.566406 533.15625 C 570.265625 557.535156 565.957031 582.550781 559.21875 606.835938 C 552.476562 631.109375 543.265625 654.675781 532.1875 676.160156 C 527.21875 685.792969 527.640625 697.019531 533.125 701.234375 C 539.3125 706.183594 549.640625 699.277344 553.75 687.515625 Z M 553.742188 687.507812 " fill-opacity="1" fill-rule="nonzero"/><path fill="#ffffff" d="M 351.632812 642.355469 C 381.488281 588.652344 428.832031 545.617188 484.507812 521.84375 C 489.273438 519.917969 492.859375 526.339844 488.636719 529.351562 C 465.070312 545.503906 444.671875 565.40625 428.15625 587.613281 C 411.652344 609.8125 399.023438 634.339844 390.953125 659.730469 C 387.339844 671.105469 375.175781 677.398438 363.800781 673.78125 C 350.761719 669.8125 344.710938 654.058594 351.632812 642.363281 Z M 351.632812 642.355469 " fill-opacity="1" fill-rule="nonzero"/><path fill="#ffffff" d="M 715.058594 34.453125 C 654.214844 149.945312 616.054688 278.699219 604.363281 410.960938 C 604.136719 413.5625 601.84375 415.480469 599.242188 415.246094 C 596.777344 415.03125 594.925781 412.945312 594.933594 410.519531 C 595.515625 276.472656 623.019531 141.5 676.214844 16.019531 C 680.851562 5.074219 693.480469 -0.0273438 704.425781 4.605469 C 715.976562 9.4375 720.9375 23.394531 715.058594 34.441406 Z M 715.058594 34.453125 " fill-opacity="1" fill-rule="nonzero"/><path fill="#ffffff" d="M 758.613281 236.214844 C 711.734375 270.492188 670.90625 315.042969 640.070312 366.84375 C 638.644531 369.242188 635.546875 370.027344 633.148438 368.605469 C 631.015625 367.339844 630.164062 364.75 631.007812 362.5 C 652.539062 304.699219 686.234375 250.285156 730.207031 203.933594 C 738.410156 195.285156 752.078125 194.917969 760.726562 203.121094 C 770.492188 212.183594 769.425781 228.464844 758.621094 236.214844 Z M 758.613281 236.214844 " fill-opacity="1" fill-rule="nonzero"/><path fill="#ffffff" d="M 715.667969 689.285156 C 702.121094 632.8125 676.75 577.972656 640.847656 529.539062 C 639.1875 527.304688 639.65625 524.136719 641.894531 522.480469 C 643.886719 521.003906 646.605469 521.21875 648.355469 522.855469 C 693.375 565.015625 730.589844 617.078125 756.402344 675.523438 C 761.222656 686.429688 756.289062 699.183594 745.382812 704.003906 C 733.25 709.519531 718.644531 702.253906 715.660156 689.296875 Z M 715.667969 689.285156 " fill-opacity="1" fill-rule="nonzero"/><path fill="#ffffff" d="M 968.230469 257.765625 C 844.453125 291.21875 726.78125 351.707031 626.121094 434.664062 C 623.5625 436.769531 619.789062 436.40625 617.683594 433.859375 C 615.679688 431.433594 615.933594 427.886719 618.144531 425.734375 C 713.207031 333.929688 828.789062 261.933594 955.347656 216.761719 C 966.546875 212.746094 978.875 218.578125 982.871094 229.773438 C 987.121094 241.503906 980.277344 254.566406 968.222656 257.777344 Z M 968.230469 257.765625 " fill-opacity="1" fill-rule="nonzero"/><path fill="#ffffff" d="M 844.773438 442.941406 C 803.363281 421.324219 753.566406 414.910156 707.109375 424.890625 C 703.515625 425.660156 699.976562 423.363281 699.199219 419.769531 C 698.527344 416.613281 700.210938 413.496094 703.066406 412.261719 C 752.003906 391.148438 808.382812 387.84375 860.359375 402.878906 C 872.035156 406.007812 878.914062 418.167969 875.535156 429.789062 C 871.929688 442.792969 856.632812 449.289062 844.761719 442.941406 Z M 844.773438 442.941406 " fill-opacity="1" fill-rule="nonzero"/><path fill="#ffffff" d="M 217.472656 670.414062 C 295.222656 555.792969 418.4375 472.992188 554.03125 445.515625 C 557.167969 444.878906 560.21875 446.910156 560.855469 450.046875 C 561.464844 453.035156 559.648438 455.953125 556.753906 456.769531 C 430.105469 492.785156 318.648438 579.65625 253.910156 693.210938 C 248.03125 703.527344 234.886719 707.128906 224.570312 701.242188 C 213.679688 695.101562 210.375 680.691406 217.460938 670.414062 Z M 217.472656 670.414062 " fill-opacity="1" fill-rule="nonzero"/><path fill="#ffffff" d="M 882.808594 757.65625 C 815.597656 645.753906 725.28125 546.363281 618.246094 467.796875 C 616.140625 466.253906 615.691406 463.292969 617.234375 461.195312 C 618.695312 459.203125 621.4375 458.707031 623.507812 459.960938 C 737.828125 529.960938 838.976562 623.453125 918.695312 734 C 925.640625 743.632812 923.46875 757.085938 913.828125 764.035156 C 903.707031 771.410156 889.195312 768.414062 882.800781 757.65625 Z M 882.808594 757.65625 " fill-opacity="1" fill-rule="nonzero"/><path fill="#ffffff" d="M 612.386719 875.339844 C 632.511719 746.367188 626.878906 612.191406 595.074219 483.28125 C 594.445312 480.746094 595.992188 478.1875 598.527344 477.5625 C 600.925781 476.972656 603.351562 478.339844 604.136719 480.632812 C 647.035156 607.628906 664.757812 744.234375 655.105469 880.179688 C 654.261719 892.03125 643.972656 900.953125 632.121094 900.121094 C 619.632812 899.296875 610.410156 887.699219 612.386719 875.339844 Z M 612.386719 875.339844 " fill-opacity="1" fill-rule="nonzero"/><path fill="#ffffff" d="M 430.046875 843.21875 C 452.414062 716.96875 502.269531 594.410156 575.984375 486.800781 C 577.859375 484.070312 577.164062 480.34375 574.429688 478.46875 C 571.835938 476.691406 568.328125 477.253906 566.378906 479.648438 C 483.347656 582.464844 421.855469 703.957031 388.050781 834.015625 C 385.035156 845.523438 391.933594 857.289062 403.449219 860.285156 C 415.507812 863.476562 427.914062 855.511719 430.039062 843.21875 Z M 430.046875 843.21875 " fill-opacity="1" fill-rule="nonzero"/><path fill="#ffffff" d="M 157.113281 388.492188 C 246.0625 366.707031 340.535156 363.941406 432.109375 381.09375 C 434.429688 381.535156 436.667969 380 437.105469 377.675781 C 437.519531 375.46875 436.144531 373.332031 434.019531 372.753906 C 342.886719 348.128906 245.765625 342.980469 151.019531 358.390625 C 142.632812 359.738281 136.929688 367.640625 138.296875 376.03125 C 139.683594 384.832031 148.472656 390.644531 157.113281 388.492188 Z M 157.113281 388.492188 " fill-opacity="1" fill-rule="nonzero"/><path fill="#ffffff" d="M 911.308594 610.839844 C 848.367188 544.3125 770.484375 490.789062 684.230469 455.5625 C 682.039062 454.671875 680.992188 452.171875 681.878906 449.980469 C 682.730469 447.902344 685.042969 446.855469 687.152344 447.519531 C 777.074219 476.234375 861.492188 524.542969 932.746094 588.851562 C 939.066406 594.53125 939.574219 604.257812 933.878906 610.570312 C 927.9375 617.21875 917.414062 617.328125 911.308594 610.832031 Z M 911.308594 610.839844 " fill-opacity="1" fill-rule="nonzero"/><path fill="#ffffff" d="M 995.914062 653.550781 C 1043.78125 626.167969 1103.851562 621.167969 1155.050781 641.316406 C 1157.234375 642.175781 1158.300781 644.636719 1157.4375 646.820312 C 1156.660156 648.785156 1154.582031 649.851562 1152.578125 649.402344 C 1127.863281 643.957031 1102.363281 644.488281 1078.554688 650.085938 C 1054.734375 655.675781 1032.546875 666.367188 1014.375 681.058594 C 1007.234375 686.832031 996.765625 685.730469 990.988281 678.585938 C 984.464844 670.683594 986.90625 658.402344 995.90625 653.550781 Z M 995.914062 653.550781 " fill-opacity="1" fill-rule="nonzero"/><path fill="#ffffff" d="M 1041.910156 550.128906 C 1088.195312 560.136719 1130.53125 585.421875 1160.527344 621.175781 C 1163.019531 624.265625 1159.078125 628.339844 1155.914062 625.90625 C 1138.722656 612.132812 1119.484375 601.542969 1099.414062 594.335938 C 1079.347656 587.128906 1058.425781 583.308594 1037.902344 583.027344 C 1028.699219 582.90625 1021.339844 575.339844 1021.464844 566.144531 C 1021.472656 555.640625 1031.734375 547.648438 1041.917969 550.136719 Z M 1041.910156 550.128906 " fill-opacity="1" fill-rule="nonzero"/><path fill="#ffffff" d="M 1265.816406 759.988281 C 1247.558594 720.585938 1221.523438 685.589844 1192.769531 661.941406 C 1190.320312 659.984375 1189.015625 663.652344 1191.28125 666.238281 C 1203.875 680.214844 1215.183594 696.1875 1224.761719 713.085938 C 1234.339844 729.984375 1242.183594 747.828125 1247.875 765.570312 C 1250.421875 773.519531 1256.78125 779.40625 1262.070312 778.703125 C 1268.136719 778.019531 1270 768.628906 1265.816406 759.980469 Z M 1265.816406 759.988281 " fill-opacity="1" fill-rule="nonzero"/><path fill="#ffffff" d="M 1117.273438 797.457031 C 1117.5 750.09375 1133.5 703.453125 1162.277344 666.722656 C 1164.789062 663.652344 1169.582031 666.660156 1167.859375 670.261719 C 1157.933594 689.921875 1151.550781 710.941406 1148.636719 732.0625 C 1145.726562 753.183594 1146.308594 774.445312 1150.285156 794.582031 C 1152.066406 803.609375 1146.195312 812.371094 1137.160156 814.160156 C 1126.878906 816.320312 1116.9375 807.921875 1117.273438 797.457031 Z M 1117.273438 797.457031 " fill-opacity="1" fill-rule="nonzero"/><path fill="#ffffff" d="M 1173.992188 476.429688 C 1167.175781 520.664062 1169.261719 567.195312 1180.742188 612.21875 C 1181.273438 614.296875 1180.011719 616.421875 1177.933594 616.953125 C 1176.078125 617.421875 1174.195312 616.488281 1173.429688 614.800781 C 1153.609375 571.585938 1142.261719 523.585938 1140.90625 474.359375 C 1140.652344 465.175781 1147.890625 457.519531 1157.074219 457.253906 C 1167.335938 456.863281 1175.636719 466.308594 1173.980469 476.429688 Z M 1173.992188 476.429688 " fill-opacity="1" fill-rule="nonzero"/><path fill="#ffffff" d="M 1335.46875 694.265625 C 1297.28125 670.917969 1253.539062 654.910156 1207.574219 648.128906 C 1205.449219 647.820312 1203.976562 645.835938 1204.285156 643.710938 C 1204.566406 641.820312 1206.160156 640.453125 1208.003906 640.386719 C 1255.515625 638.769531 1304.179688 646.800781 1350.128906 664.53125 C 1358.707031 667.835938 1362.976562 677.472656 1359.667969 686.046875 C 1356.074219 695.671875 1344.15625 699.6875 1335.460938 694.257812 Z M 1335.46875 694.265625 " fill-opacity="1" fill-rule="nonzero"/><path fill="#ffffff" d="M 1288.546875 555.941406 C 1254.214844 566.765625 1223.601562 590.449219 1203.761719 621.234375 C 1202.226562 623.609375 1199.042969 624.304688 1196.667969 622.757812 C 1194.578125 621.410156 1193.792969 618.789062 1194.671875 616.5625 C 1209.792969 578.363281 1238.675781 545.800781 1275.175781 525.628906 C 1283.238281 520.957031 1293.621094 523.820312 1298.113281 531.992188 C 1303.253906 541.039062 1298.46875 552.925781 1288.535156 555.949219 Z M 1288.546875 555.941406 " fill-opacity="1" fill-rule="nonzero"/><path fill="#ffffff" d="M 304.0625 1095.105469 C 351.929688 1067.722656 412 1062.722656 463.199219 1082.871094 C 465.382812 1083.730469 466.449219 1086.195312 465.585938 1088.375 C 464.808594 1090.339844 462.730469 1091.410156 460.726562 1090.960938 C 436.011719 1085.511719 410.507812 1086.042969 386.703125 1091.644531 C 362.882812 1097.230469 340.695312 1107.921875 322.523438 1122.613281 C 315.382812 1128.390625 304.914062 1127.285156 299.136719 1120.140625 C 292.613281 1112.238281 295.054688 1099.957031 304.054688 1095.105469 Z M 304.0625 1095.105469 " fill-opacity="1" fill-rule="nonzero"/><path fill="#ffffff" d="M 350.050781 991.691406 C 396.335938 1001.699219 438.671875 1026.988281 468.667969 1062.742188 C 471.15625 1065.832031 467.214844 1069.902344 464.050781 1067.46875 C 446.863281 1053.699219 427.625 1043.109375 407.550781 1035.902344 C 387.488281 1028.691406 366.5625 1024.871094 346.042969 1024.589844 C 336.839844 1024.46875 329.480469 1016.90625 329.601562 1007.710938 C 329.613281 997.207031 339.871094 989.210938 350.058594 991.703125 Z M 350.050781 991.691406 " fill-opacity="1" fill-rule="nonzero"/><path fill="#ffffff" d="M 573.964844 1201.554688 C 555.707031 1162.148438 529.671875 1127.152344 500.917969 1103.503906 C 498.464844 1101.546875 497.164062 1105.21875 499.429688 1107.800781 C 512.023438 1121.78125 523.332031 1137.75 532.910156 1154.648438 C 542.488281 1171.546875 550.332031 1189.390625 556.023438 1207.132812 C 558.570312 1215.082031 564.929688 1220.972656 570.21875 1220.269531 C 576.285156 1219.585938 578.148438 1210.195312 573.964844 1201.542969 Z M 573.964844 1201.554688 " fill-opacity="1" fill-rule="nonzero"/><path fill="#ffffff" d="M 425.414062 1239.019531 C 425.640625 1191.660156 441.636719 1145.015625 470.417969 1108.289062 C 472.925781 1105.21875 477.71875 1108.222656 475.996094 1111.828125 C 466.074219 1131.488281 459.6875 1152.503906 456.777344 1173.625 C 453.867188 1194.746094 454.445312 1216.007812 458.425781 1236.148438 C 460.203125 1245.171875 454.332031 1253.933594 445.300781 1255.722656 C 435.019531 1257.886719 425.078125 1249.488281 425.414062 1239.019531 Z M 425.414062 1239.019531 " fill-opacity="1" fill-rule="nonzero"/><path fill="#ffffff" d="M 482.128906 917.984375 C 475.3125 962.21875 477.402344 1008.75 488.878906 1053.773438 C 489.414062 1055.851562 488.148438 1057.976562 486.070312 1058.511719 C 484.21875 1058.976562 482.335938 1058.042969 481.566406 1056.355469 C 461.75 1013.140625 450.402344 965.140625 449.042969 915.914062 C 448.792969 906.730469 456.027344 899.074219 465.210938 898.8125 C 475.472656 898.417969 483.777344 907.863281 482.121094 917.984375 Z M 482.128906 917.984375 " fill-opacity="1" fill-rule="nonzero"/><path fill="#ffffff" d="M 643.609375 1135.824219 C 605.417969 1112.472656 561.679688 1096.464844 515.710938 1089.6875 C 513.585938 1089.378906 512.117188 1087.390625 512.425781 1085.265625 C 512.707031 1083.375 514.296875 1082.007812 516.140625 1081.945312 C 563.65625 1080.324219 612.320312 1088.355469 658.269531 1106.089844 C 666.84375 1109.394531 671.113281 1119.027344 667.808594 1127.601562 C 664.214844 1137.226562 652.296875 1141.242188 643.597656 1135.8125 Z M 643.609375 1135.824219 " fill-opacity="1" fill-rule="nonzero"/><path fill="#ffffff" d="M 596.683594 997.496094 C 562.355469 1008.320312 531.738281 1032.007812 511.902344 1062.789062 C 510.367188 1065.167969 507.183594 1065.859375 504.804688 1064.316406 C 502.71875 1062.964844 501.929688 1060.34375 502.8125 1058.117188 C 517.929688 1019.917969 546.8125 987.359375 583.316406 967.183594 C 591.375 962.511719 601.757812 965.375 606.253906 973.546875 C 611.394531 982.59375 606.609375 994.484375 596.675781 997.507812 Z M 596.683594 997.496094 " fill-opacity="1" fill-rule="nonzero"/><path fill="#ffffff" d="M 769.507812 779.003906 C 772.039062 778.375 774.722656 779.003906 776.082031 781.230469 C 837.664062 881.921875 917.523438 1500 917.523438 1500 C 863.542969 1111.085938 769.050781 792.082031 769.050781 792.082031 C 769.050781 792.082031 765.101562 780.089844 769.507812 779.003906 Z M 769.507812 779.003906 " fill-opacity="1" fill-rule="nonzero"/><path fill="#ffffff" d="M 1059.585938 870.3125 C 1058.265625 869.984375 1056.863281 870.3125 1056.148438 871.472656 C 1023.972656 924.089844 982.234375 1247.074219 982.234375 1247.074219 C 1010.445312 1043.839844 1059.820312 877.148438 1059.820312 877.148438 C 1059.820312 877.148438 1061.878906 870.882812 1059.578125 870.3125 Z M 1059.585938 870.3125 " fill-opacity="1" fill-rule="nonzero"/><path fill="#ffffff" d="M 608.152344 1162.402344 C 609.238281 1161.578125 610.664062 1161.335938 611.765625 1162.121094 C 662.042969 1197.847656 827.40625 1478.402344 827.40625 1478.402344 C 721.566406 1302.628906 610.625 1168.777344 610.625 1168.777344 C 610.625 1168.777344 606.261719 1163.824219 608.152344 1162.402344 Z M 608.152344 1162.402344 " fill-opacity="1" fill-rule="nonzero"/></svg>