<svg xmlns="http://www.w3.org/2000/svg" xmlns:xlink="http://www.w3.org/1999/xlink" width="2000" zoomAndPan="magnify" viewBox="0 0 1500 1499.999933" height="2000" preserveAspectRatio="xMidYMid meet" version="1.0"><path fill="#000000" d="M 239.855469 475.699219 C 305.792969 411.941406 407.785156 388.40625 494.191406 418.769531 C 497.355469 419.882812 499.011719 423.347656 497.898438 426.511719 C 496.867188 429.441406 493.808594 431.078125 490.851562 430.414062 C 450.332031 421.34375 407.542969 424.5625 368.671875 438.054688 C 330.90625 451.125 296.304688 474.183594 271.339844 504.957031 C 263.84375 514.1875 250.28125 515.601562 241.042969 508.09375 C 230.957031 500.03125 230.414062 484.480469 239.855469 475.691406 Z M 239.855469 475.699219 " fill-opacity="1" fill-rule="nonzero"/><path fill="#000000" d="M 372.171875 268.046875 C 441.171875 286.929688 500.789062 337.515625 529.195312 403.011719 C 530.402344 405.800781 529.121094 409.039062 526.332031 410.25 C 523.816406 411.335938 520.933594 410.398438 519.507812 408.160156 C 501.875 380.46875 478.019531 357.539062 451.0625 340.789062 C 424.117188 324.03125 393.96875 313.453125 363.832031 310.222656 C 351.984375 308.960938 343.410156 298.324219 344.683594 286.472656 C 345.964844 273.242188 359.472656 264.226562 372.171875 268.046875 Z M 372.171875 268.046875 " fill-opacity="1" fill-rule="nonzero"/><path fill="#000000" d="M 332.515625 83.230469 C 450.921875 155.035156 539.875 273.859375 574.226562 407.878906 C 575.019531 410.980469 573.148438 414.132812 570.050781 414.929688 C 567.09375 415.6875 564.089844 414.019531 563.132812 411.183594 C 520.71875 286.539062 428.300781 179.660156 311.625 120.800781 C 301.019531 115.453125 296.761719 102.515625 302.105469 91.90625 C 307.675781 80.71875 321.890625 76.683594 332.523438 83.238281 Z M 332.515625 83.230469 " fill-opacity="1" fill-rule="nonzero"/><path fill="#000000" d="M 530.394531 125.210938 C 563.613281 176.898438 579.167969 238.957031 573.8125 299.261719 C 573.261719 304.371094 565.914062 304.492188 565.25 299.34375 C 562.152344 270.941406 554.253906 243.554688 542.488281 218.519531 C 530.722656 193.488281 515.074219 170.765625 496.523438 151.65625 C 488.203125 143.089844 488.40625 129.402344 496.972656 121.089844 C 506.621094 111.476562 523.367188 113.582031 530.402344 125.210938 Z M 530.394531 125.210938 " fill-opacity="1" fill-rule="nonzero"/><path fill="#000000" d="M 553.625 687.507812 C 573.082031 634.628906 581.375 578.652344 576.753906 530.578125 C 576.292969 526.535156 571.746094 528.707031 571.445312 533.15625 C 570.144531 557.535156 565.839844 582.550781 559.101562 606.835938 C 552.363281 631.109375 543.152344 654.675781 532.078125 676.160156 C 527.109375 685.792969 527.53125 697.019531 533.015625 701.234375 C 539.203125 706.183594 549.527344 699.277344 553.632812 687.515625 Z M 553.625 687.507812 " fill-opacity="1" fill-rule="nonzero"/><path fill="#000000" d="M 351.570312 642.355469 C 381.417969 588.652344 428.75 545.617188 484.410156 521.84375 C 489.175781 519.917969 492.761719 526.339844 488.539062 529.351562 C 464.980469 545.503906 444.585938 565.40625 428.078125 587.613281 C 411.574219 609.8125 398.949219 634.339844 390.882812 659.730469 C 387.269531 671.105469 375.109375 677.398438 363.738281 673.78125 C 350.703125 669.8125 344.65625 654.058594 351.570312 642.363281 Z M 351.570312 642.355469 " fill-opacity="1" fill-rule="nonzero"/><path fill="#000000" d="M 714.898438 34.453125 C 654.070312 149.945312 615.921875 278.699219 604.230469 410.960938 C 604.007812 413.5625 601.714844 415.480469 599.113281 415.246094 C 596.652344 415.03125 594.796875 412.945312 594.808594 410.519531 C 595.386719 276.472656 622.886719 141.5 676.066406 16.019531 C 680.699219 5.074219 693.324219 -0.0273438 704.265625 4.605469 C 715.816406 9.4375 720.777344 23.394531 714.898438 34.441406 Z M 714.898438 34.453125 " fill-opacity="1" fill-rule="nonzero"/><path fill="#000000" d="M 758.441406 236.214844 C 711.578125 270.492188 670.757812 315.042969 639.929688 366.84375 C 638.507812 369.242188 635.410156 370.027344 633.011719 368.605469 C 630.878906 367.339844 630.027344 364.75 630.871094 362.5 C 652.394531 304.699219 686.082031 250.285156 730.042969 203.933594 C 738.242188 195.285156 751.90625 194.917969 760.554688 203.121094 C 770.316406 212.183594 769.25 228.464844 758.449219 236.214844 Z M 758.441406 236.214844 " fill-opacity="1" fill-rule="nonzero"/><path fill="#000000" d="M 715.507812 689.285156 C 701.964844 632.8125 676.601562 577.972656 640.707031 529.539062 C 639.050781 527.304688 639.519531 524.136719 641.753906 522.480469 C 643.75 521.003906 646.460938 521.21875 648.210938 522.855469 C 693.222656 565.015625 730.425781 617.078125 756.230469 675.523438 C 761.050781 686.429688 756.117188 699.183594 745.214844 704.003906 C 733.085938 709.519531 718.484375 702.253906 715.5 689.296875 Z M 715.507812 689.285156 " fill-opacity="1" fill-rule="nonzero"/><path fill="#000000" d="M 968 257.765625 C 844.257812 291.21875 726.617188 351.707031 625.984375 434.664062 C 623.429688 436.769531 619.65625 436.40625 617.550781 433.859375 C 615.546875 431.433594 615.800781 427.886719 618.007812 425.734375 C 713.046875 333.929688 828.597656 261.933594 955.121094 216.761719 C 966.316406 212.746094 978.640625 218.578125 982.636719 229.773438 C 986.886719 241.503906 980.046875 254.566406 967.992188 257.777344 Z M 968 257.765625 " fill-opacity="1" fill-rule="nonzero"/><path fill="#000000" d="M 844.574219 442.941406 C 803.179688 421.324219 753.394531 414.910156 706.953125 424.890625 C 703.359375 425.660156 699.820312 423.363281 699.042969 419.769531 C 698.371094 416.613281 700.054688 413.496094 702.910156 412.261719 C 751.832031 391.148438 808.195312 387.84375 860.160156 402.878906 C 871.832031 406.007812 878.710938 418.167969 875.332031 429.789062 C 871.726562 442.792969 856.433594 449.289062 844.566406 442.941406 Z M 844.574219 442.941406 " fill-opacity="1" fill-rule="nonzero"/><path fill="#000000" d="M 217.449219 670.414062 C 295.179688 555.792969 418.359375 472.992188 553.914062 445.515625 C 557.050781 444.878906 560.101562 446.910156 560.738281 450.046875 C 561.347656 453.035156 559.53125 455.953125 556.640625 456.769531 C 430.023438 492.785156 318.597656 579.65625 253.875 693.210938 C 248 703.527344 234.859375 707.128906 224.542969 701.242188 C 213.660156 695.101562 210.355469 680.691406 217.441406 670.414062 Z M 217.449219 670.414062 " fill-opacity="1" fill-rule="nonzero"/><path fill="#000000" d="M 882.601562 757.65625 C 815.410156 645.753906 725.121094 546.363281 618.113281 467.796875 C 616.007812 466.253906 615.558594 463.292969 617.101562 461.195312 C 618.5625 459.203125 621.304688 458.707031 623.371094 459.960938 C 737.660156 529.960938 838.78125 623.453125 918.476562 734 C 925.421875 743.632812 923.25 757.085938 913.613281 764.035156 C 903.492188 771.410156 888.988281 768.414062 882.59375 757.65625 Z M 882.601562 757.65625 " fill-opacity="1" fill-rule="nonzero"/><path fill="#000000" d="M 612.253906 875.339844 C 632.375 746.367188 626.742188 612.191406 594.949219 483.28125 C 594.320312 480.746094 595.863281 478.1875 598.402344 477.5625 C 600.796875 476.972656 603.222656 478.339844 604.007812 480.632812 C 646.894531 607.628906 664.609375 744.234375 654.960938 880.179688 C 654.117188 892.03125 643.832031 900.953125 631.984375 900.121094 C 619.496094 899.296875 610.277344 887.699219 612.253906 875.339844 Z M 612.253906 875.339844 " fill-opacity="1" fill-rule="nonzero"/><path fill="#000000" d="M 429.96875 843.21875 C 452.328125 716.96875 502.167969 594.410156 575.863281 486.800781 C 577.734375 484.070312 577.042969 480.34375 574.308594 478.46875 C 571.71875 476.691406 568.207031 477.253906 566.261719 479.648438 C 483.25 582.464844 421.777344 703.957031 387.980469 834.015625 C 384.964844 845.523438 391.863281 857.289062 403.375 860.285156 C 415.433594 863.476562 427.832031 855.511719 429.957031 843.21875 Z M 429.96875 843.21875 " fill-opacity="1" fill-rule="nonzero"/><path fill="#000000" d="M 157.109375 388.492188 C 246.035156 366.707031 340.480469 363.941406 432.027344 381.09375 C 434.347656 381.535156 436.585938 380 437.023438 377.675781 C 437.4375 375.46875 436.058594 373.332031 433.933594 372.753906 C 342.828125 348.128906 245.734375 342.980469 151.015625 358.390625 C 142.628906 359.738281 136.929688 367.640625 138.296875 376.03125 C 139.679688 384.832031 148.46875 390.644531 157.109375 388.492188 Z M 157.109375 388.492188 " fill-opacity="1" fill-rule="nonzero"/><path fill="#000000" d="M 911.09375 610.839844 C 848.167969 544.3125 770.308594 490.789062 684.078125 455.5625 C 681.886719 454.671875 680.839844 452.171875 681.730469 449.980469 C 682.582031 447.902344 684.894531 446.855469 687 447.519531 C 776.898438 476.234375 861.292969 524.542969 932.527344 588.851562 C 938.84375 594.53125 939.351562 604.257812 933.660156 610.570312 C 927.714844 617.21875 917.195312 617.328125 911.09375 610.832031 Z M 911.09375 610.839844 " fill-opacity="1" fill-rule="nonzero"/><path fill="#000000" d="M 995.675781 653.550781 C 1043.53125 626.167969 1103.582031 621.167969 1154.769531 641.316406 C 1156.949219 642.175781 1158.015625 644.636719 1157.15625 646.820312 C 1156.378906 648.785156 1154.300781 649.851562 1152.296875 649.402344 C 1127.589844 643.957031 1102.09375 644.488281 1078.292969 650.085938 C 1054.480469 655.675781 1032.300781 666.367188 1014.132812 681.058594 C 1006.992188 686.832031 996.527344 685.730469 990.753906 678.585938 C 984.230469 670.683594 986.671875 658.402344 995.667969 653.550781 Z M 995.675781 653.550781 " fill-opacity="1" fill-rule="nonzero"/><path fill="#000000" d="M 1041.660156 550.128906 C 1087.933594 560.136719 1130.257812 585.421875 1160.246094 621.175781 C 1162.734375 624.265625 1158.792969 628.339844 1155.628906 625.90625 C 1138.445312 612.132812 1119.210938 601.542969 1099.144531 594.335938 C 1079.089844 587.128906 1058.167969 583.308594 1037.652344 583.027344 C 1028.453125 582.90625 1021.097656 575.339844 1021.21875 566.144531 C 1021.226562 555.640625 1031.484375 547.648438 1041.667969 550.136719 Z M 1041.660156 550.128906 " fill-opacity="1" fill-rule="nonzero"/><path fill="#000000" d="M 1265.5 759.988281 C 1247.25 720.585938 1221.222656 685.589844 1192.480469 661.941406 C 1190.027344 659.984375 1188.726562 663.652344 1190.992188 666.238281 C 1203.578125 680.214844 1214.886719 696.1875 1224.460938 713.085938 C 1234.035156 729.984375 1241.878906 747.828125 1247.570312 765.570312 C 1250.113281 773.519531 1256.46875 779.40625 1261.757812 778.703125 C 1267.824219 778.019531 1269.6875 768.628906 1265.5 759.980469 Z M 1265.5 759.988281 " fill-opacity="1" fill-rule="nonzero"/><path fill="#000000" d="M 1117.003906 797.457031 C 1117.226562 750.09375 1133.222656 703.453125 1161.996094 666.722656 C 1164.503906 663.652344 1169.296875 666.660156 1167.574219 670.261719 C 1157.652344 689.921875 1151.269531 710.941406 1148.359375 732.0625 C 1145.445312 753.183594 1146.027344 774.445312 1150.003906 794.582031 C 1151.785156 803.609375 1145.914062 812.371094 1136.882812 814.160156 C 1126.605469 816.320312 1116.667969 807.921875 1117.003906 797.457031 Z M 1117.003906 797.457031 " fill-opacity="1" fill-rule="nonzero"/><path fill="#000000" d="M 1173.703125 476.429688 C 1166.890625 520.664062 1168.976562 567.195312 1180.453125 612.21875 C 1180.984375 614.296875 1179.722656 616.421875 1177.644531 616.953125 C 1175.789062 617.421875 1173.910156 616.488281 1173.140625 614.800781 C 1153.328125 571.585938 1141.984375 523.585938 1140.625 474.359375 C 1140.375 465.175781 1147.609375 457.519531 1156.789062 457.253906 C 1167.046875 456.863281 1175.351562 466.308594 1173.695312 476.429688 Z M 1173.703125 476.429688 " fill-opacity="1" fill-rule="nonzero"/><path fill="#000000" d="M 1335.136719 694.265625 C 1296.960938 670.917969 1253.230469 654.910156 1207.277344 648.128906 C 1205.152344 647.820312 1203.683594 645.835938 1203.992188 643.710938 C 1204.273438 641.820312 1205.863281 640.453125 1207.707031 640.386719 C 1255.207031 638.769531 1303.855469 646.800781 1349.792969 664.53125 C 1358.367188 667.835938 1362.636719 677.472656 1359.332031 686.046875 C 1355.738281 695.671875 1343.824219 699.6875 1335.128906 694.257812 Z M 1335.136719 694.265625 " fill-opacity="1" fill-rule="nonzero"/><path fill="#000000" d="M 1288.226562 555.941406 C 1253.90625 566.765625 1223.300781 590.449219 1203.46875 621.234375 C 1201.933594 623.609375 1198.75 624.304688 1196.371094 622.757812 C 1194.285156 621.410156 1193.5 618.789062 1194.378906 616.5625 C 1209.496094 578.363281 1238.367188 545.800781 1274.863281 525.628906 C 1282.921875 520.957031 1293.300781 523.820312 1297.792969 531.992188 C 1302.929688 541.039062 1298.148438 552.925781 1288.21875 555.949219 Z M 1288.226562 555.941406 " fill-opacity="1" fill-rule="nonzero"/><path fill="#000000" d="M 304.015625 1095.105469 C 351.871094 1067.722656 411.921875 1062.722656 463.109375 1082.871094 C 465.289062 1083.730469 466.355469 1086.195312 465.496094 1088.375 C 464.71875 1090.339844 462.640625 1091.410156 460.636719 1090.960938 C 435.929688 1085.511719 410.433594 1086.042969 386.632812 1091.644531 C 362.820312 1097.230469 340.640625 1107.921875 322.472656 1122.613281 C 315.332031 1128.390625 304.867188 1127.285156 299.09375 1120.140625 C 292.570312 1112.238281 295.011719 1099.957031 304.007812 1095.105469 Z M 304.015625 1095.105469 " fill-opacity="1" fill-rule="nonzero"/><path fill="#000000" d="M 349.988281 991.691406 C 396.261719 1001.699219 438.585938 1026.988281 468.574219 1062.742188 C 471.066406 1065.832031 467.125 1069.902344 463.960938 1067.46875 C 446.777344 1053.699219 427.542969 1043.109375 407.476562 1035.902344 C 387.417969 1028.691406 366.5 1024.871094 345.984375 1024.589844 C 336.785156 1024.46875 329.425781 1016.90625 329.546875 1007.710938 C 329.558594 997.207031 339.816406 989.210938 350 991.703125 Z M 349.988281 991.691406 " fill-opacity="1" fill-rule="nonzero"/><path fill="#000000" d="M 573.839844 1201.554688 C 555.589844 1162.148438 529.5625 1127.152344 500.820312 1103.503906 C 498.367188 1101.546875 497.066406 1105.21875 499.332031 1107.800781 C 511.917969 1121.78125 523.226562 1137.75 532.800781 1154.648438 C 542.375 1171.546875 550.21875 1189.390625 555.910156 1207.132812 C 558.453125 1215.082031 564.808594 1220.972656 570.097656 1220.269531 C 576.164062 1219.585938 578.027344 1210.195312 573.84375 1201.542969 Z M 573.839844 1201.554688 " fill-opacity="1" fill-rule="nonzero"/><path fill="#000000" d="M 425.335938 1239.019531 C 425.558594 1191.660156 441.554688 1145.015625 470.324219 1108.289062 C 472.832031 1105.21875 477.625 1108.222656 475.902344 1111.828125 C 465.984375 1131.488281 459.597656 1152.503906 456.6875 1173.625 C 453.777344 1194.746094 454.359375 1216.007812 458.335938 1236.148438 C 460.113281 1245.171875 454.246094 1253.933594 445.214844 1255.722656 C 434.9375 1257.886719 424.996094 1249.488281 425.335938 1239.019531 Z M 425.335938 1239.019531 " fill-opacity="1" fill-rule="nonzero"/><path fill="#000000" d="M 482.035156 917.984375 C 475.21875 962.21875 477.308594 1008.75 488.78125 1053.773438 C 489.316406 1055.851562 488.050781 1057.976562 485.972656 1058.511719 C 484.121094 1058.976562 482.238281 1058.042969 481.472656 1056.355469 C 461.660156 1013.140625 450.316406 965.140625 448.957031 915.914062 C 448.703125 906.730469 455.941406 899.074219 465.121094 898.8125 C 475.378906 898.417969 483.679688 907.863281 482.023438 917.984375 Z M 482.035156 917.984375 " fill-opacity="1" fill-rule="nonzero"/><path fill="#000000" d="M 643.46875 1135.824219 C 605.289062 1112.472656 561.5625 1096.464844 515.605469 1089.6875 C 513.480469 1089.378906 512.011719 1087.390625 512.320312 1085.265625 C 512.601562 1083.375 514.195312 1082.007812 516.039062 1081.945312 C 563.535156 1080.324219 612.1875 1088.355469 658.125 1106.089844 C 666.699219 1109.394531 670.964844 1119.027344 667.660156 1127.601562 C 664.066406 1137.226562 652.152344 1141.242188 643.457031 1135.8125 Z M 643.46875 1135.824219 " fill-opacity="1" fill-rule="nonzero"/><path fill="#000000" d="M 596.558594 997.496094 C 562.234375 1008.320312 531.628906 1032.007812 511.796875 1062.789062 C 510.261719 1065.167969 507.082031 1065.859375 504.703125 1064.316406 C 502.617188 1062.964844 501.828125 1060.34375 502.710938 1058.117188 C 517.824219 1019.917969 546.699219 987.359375 583.191406 967.183594 C 591.25 962.511719 601.628906 965.375 606.121094 973.546875 C 611.261719 982.59375 606.476562 994.484375 596.546875 997.507812 Z M 596.558594 997.496094 " fill-opacity="1" fill-rule="nonzero"/><path fill="#000000" d="M 769.335938 779.003906 C 771.863281 778.375 774.546875 779.003906 775.90625 781.230469 C 837.472656 881.921875 917.308594 1500 917.308594 1500 C 863.339844 1111.085938 768.875 792.082031 768.875 792.082031 C 768.875 792.082031 764.925781 780.089844 769.335938 779.003906 Z M 769.335938 779.003906 " fill-opacity="1" fill-rule="nonzero"/><path fill="#000000" d="M 1059.332031 870.3125 C 1058.011719 869.984375 1056.605469 870.3125 1055.894531 871.472656 C 1023.726562 924.089844 982 1247.074219 982 1247.074219 C 1010.203125 1043.839844 1059.5625 877.148438 1059.5625 877.148438 C 1059.5625 877.148438 1061.625 870.882812 1059.320312 870.3125 Z M 1059.332031 870.3125 " fill-opacity="1" fill-rule="nonzero"/><path fill="#000000" d="M 608.023438 1162.402344 C 609.109375 1161.578125 610.53125 1161.335938 611.636719 1162.121094 C 661.894531 1197.847656 827.214844 1478.402344 827.214844 1478.402344 C 721.402344 1302.628906 610.492188 1168.777344 610.492188 1168.777344 C 610.492188 1168.777344 606.132812 1163.824219 608.023438 1162.402344 Z M 608.023438 1162.402344 " fill-opacity="1" fill-rule="nonzero"/></svg>